<svg width="21" height="21" viewBox="0 0 21 21" fill="none" xmlns="http://www.w3.org/2000/svg">
<rect x="0.5" y="0.5" width="20" height="20" rx="10" stroke="#3A3A3A"/>
<path d="M11.7553 3.91528C10.9052 3.91528 10.2097 4.61078 10.2097 5.46084C10.2097 6.31089 10.9052 7.00639 11.7553 7.00639C12.6054 7.00639 13.3009 6.31089 13.3009 5.46084C13.3009 4.61078 12.6054 3.91528 11.7553 3.91528ZM9.43697 7.77916C8.15416 7.77916 7.11864 8.81468 7.11864 10.0975H8.6642C8.6642 9.66474 9.00422 9.32472 9.43697 9.32472C9.86973 9.32472 10.2097 9.66474 10.2097 10.0975C10.2097 10.5302 8.6642 12.6322 8.6642 13.9614C8.6642 15.2905 9.69972 16.2797 10.9825 16.2797C12.2653 16.2797 13.3009 15.2442 13.3009 13.9614H11.7553C11.7553 14.3941 11.4153 14.7342 10.9825 14.7342C10.5498 14.7342 10.2097 14.3941 10.2097 13.9614C10.2097 13.405 11.7553 11.1176 11.7553 10.0975C11.7553 8.8456 10.7198 7.77916 9.43697 7.77916Z" fill="#3A3A3A"/>
</svg>
