<svg width="39" height="39" viewBox="0 0 39 39" fill="none" xmlns="http://www.w3.org/2000/svg">
<path d="M19.1577 37.3154C29.1858 37.3154 37.3154 29.1858 37.3154 19.1577C37.3154 9.12947 29.1858 1 19.1577 1C9.12947 1 1 9.12947 1 19.1577C1 29.1858 9.12947 37.3154 19.1577 37.3154Z" stroke="black" stroke-width="2" stroke-linecap="round" stroke-linejoin="round"/>
<path d="M23.3945 31.8681V28.4853C23.4399 27.9233 23.362 27.3583 23.1657 26.8279C22.9696 26.2975 22.6597 25.8138 22.2568 25.409C26.0577 24.9965 30.0524 23.5938 30.0524 17.1584C30.052 15.5126 29.402 13.9301 28.2366 12.7382C28.7884 11.2985 28.7494 9.70712 28.1277 8.29466C28.1277 8.29466 26.6992 7.88213 23.3945 10.0391C20.62 9.30693 17.6956 9.30693 14.921 10.0391C11.6163 7.88213 10.1879 8.29466 10.1879 8.29466C9.56611 9.70712 9.52711 11.2985 10.0789 12.7382C8.90488 13.939 8.25411 15.5358 8.26315 17.1936C8.26315 23.582 12.2578 24.9847 16.0588 25.4443C15.6606 25.845 15.3534 26.3229 15.1574 26.8469C14.9613 27.3708 14.8808 27.929 14.921 28.4853V31.8681" stroke="black" stroke-width="2" stroke-linecap="round" stroke-linejoin="round"/>
<path d="M14.9209 29.5109C11.2893 30.6579 8.26304 29.5109 6.44727 25.9748" stroke="black" stroke-width="2" stroke-linecap="round" stroke-linejoin="round"/>
</svg>
