<svg width="123" height="123" viewBox="0 0 123 123" fill="none" xmlns="http://www.w3.org/2000/svg">
	<path
		d="M111.448 115.065C111.006 115.065 110.56 114.984 110.132 114.816L89.6277 106.797C81.0034 112.212 71.0921 115.065 60.8386 115.065C30.9386 115.065 6.6129 90.7388 6.6129 60.8387C6.6129 30.9386 30.9386 6.61292 60.8386 6.61292C90.7387 6.61292 115.064 30.9386 115.064 60.8387C115.064 71.0922 112.212 81.0035 106.797 89.629L114.816 110.134C115.339 111.471 115.021 112.991 114.005 114.007C113.315 114.696 112.389 115.065 111.448 115.065ZM60.8386 13.843C34.9248 13.843 13.843 34.9248 13.843 60.8387C13.843 86.7526 34.9248 107.834 60.8386 107.834C70.2848 107.834 79.3935 105.042 87.1827 99.7608C88.1684 99.092 89.418 98.9522 90.5278 99.3848L105.072 105.074L99.3835 90.5292C98.9497 89.4205 99.0907 88.1685 99.7595 87.184C105.042 79.3936 107.834 70.2849 107.834 60.8387C107.834 34.9248 86.7525 13.843 60.8386 13.843Z"
		fill="black" />
</svg>